<?xml version="1.0" encoding="UTF-8" standalone="no"?><svg xmlns="http://www.w3.org/2000/svg" xmlns:xlink="http://www.w3.org/1999/xlink" contentStyleType="text/css" height="167px" preserveAspectRatio="none" style="width:388px;height:167px;background:#FFFFFF;" version="1.1" viewBox="0 0 388 167" width="388px" zoomAndPan="magnify"><defs/><g><!--MD5=[c541329f0a8967aa026fc65b36e8f452]
cluster com.example--><g id="cluster_com.example"><path d="M8.5,6 L101.5,6 A3.75,3.75 0 0 1 104,8.5 L111,29.6094 L378.5,29.6094 A2.5,2.5 0 0 1 381,32.1094 L381,138.5 A2.5,2.5 0 0 1 378.5,141 L8.5,141 A2.5,2.5 0 0 1 6,138.5 L6,8.5 A2.5,2.5 0 0 1 8.5,6 " style="stroke:#000000;stroke-width:1.5;fill:none;"/><line style="stroke:#000000;stroke-width:1.5;fill:none;" x1="6" x2="111" y1="29.6094" y2="29.6094"/><text fill="#000000" font-family="sans-serif" font-size="14" font-weight="bold" lengthAdjust="spacing" textLength="92" x="10" y="22.5332">com.example</text></g><!--MD5=[8ff7a88e43d992f68e2a71bb0de4bb33]
class com.example.App--><a href="App.html" target="_top" title="App.html" xlink:actuate="onRequest" xlink:href="App.html" xlink:show="new" xlink:title="App.html" xlink:type="simple"><g id="elem_com.example.App"><rect codeLine="3" fill="#F1F1F1" height="65.6094" id="com.example.App" rx="2.5" ry="2.5" style="stroke:#181818;stroke-width:0.5;" width="145" x="219.5" y="50.5"/><ellipse cx="275.25" cy="66.5" fill="#ADD1B2" rx="11" ry="11" style="stroke:#181818;stroke-width:1.0;"/><path d="M278.0156,62.375 Q278.1719,62.1563 278.3594,62.0469 Q278.5469,61.9375 278.7656,61.9375 Q279.1406,61.9375 279.375,62.2031 Q279.6094,62.4531 279.6094,63.0625 L279.6094,64.5156 Q279.6094,65.125 279.375,65.3906 Q279.1406,65.6563 278.7656,65.6563 Q278.4219,65.6563 278.2188,65.4531 Q278.0156,65.2656 277.9063,64.75 Q277.8594,64.3906 277.6719,64.2031 Q277.3438,63.8281 276.7344,63.6094 Q276.125,63.3906 275.5,63.3906 Q274.7344,63.3906 274.0938,63.7188 Q273.4688,64.0469 272.9688,64.7969 Q272.4844,65.5469 272.4844,66.5781 L272.4844,67.6719 Q272.4844,68.9063 273.375,69.7344 Q274.2656,70.5469 275.8594,70.5469 Q276.7969,70.5469 277.4531,70.2969 Q277.8438,70.1406 278.2656,69.7031 Q278.5313,69.4375 278.6719,69.3594 Q278.8281,69.2813 279.0313,69.2813 Q279.3594,69.2813 279.6094,69.5469 Q279.875,69.7969 279.875,70.1406 Q279.875,70.4844 279.5313,70.8906 Q279.0313,71.4688 278.2344,71.7969 Q277.1563,72.25 275.8594,72.25 Q274.3438,72.25 273.1406,71.625 Q272.1563,71.125 271.4688,70.0625 Q270.7813,68.9844 270.7813,67.7031 L270.7813,66.5469 Q270.7813,65.2188 271.3906,64.0781 Q272.0156,62.9219 273.1094,62.3125 Q274.2031,61.6875 275.4375,61.6875 Q276.1719,61.6875 276.8125,61.8594 Q277.4688,62.0156 278.0156,62.375 Z " fill="#000000"/><text fill="#000000" font-family="sans-serif" font-size="14" lengthAdjust="spacing" textLength="25" x="295.75" y="72.2285">App</text><line style="stroke:#181818;stroke-width:0.5;" x1="220.5" x2="363.5" y1="82.5" y2="82.5"/><line style="stroke:#181818;stroke-width:0.5;" x1="220.5" x2="363.5" y1="90.5" y2="90.5"/><ellipse cx="230.5" cy="101.5" fill="#84BE84" rx="3" ry="3" style="stroke:#038048;stroke-width:1.0;"/><text fill="#000000" font-family="sans-serif" font-size="14" lengthAdjust="spacing" text-decoration="underline" textLength="119" x="239.5" y="109.0332">main(String[]): void</text></g></a><!--MD5=[866f347af90f76941a6a0fe6396658f2]
class com.example.Person--><a href="Person.html" target="_top" title="Person.html" xlink:actuate="onRequest" xlink:href="Person.html" xlink:show="new" xlink:title="Person.html" xlink:type="simple"><g id="elem_com.example.Person"><rect codeLine="7" fill="#F1F1F1" height="83.2188" id="com.example.Person" rx="2.5" ry="2.5" style="stroke:#181818;stroke-width:0.5;" width="162" x="22" y="42"/><ellipse cx="76.25" cy="58" fill="#ADD1B2" rx="11" ry="11" style="stroke:#181818;stroke-width:1.0;"/><path d="M79.0156,53.875 Q79.1719,53.6563 79.3594,53.5469 Q79.5469,53.4375 79.7656,53.4375 Q80.1406,53.4375 80.375,53.7031 Q80.6094,53.9531 80.6094,54.5625 L80.6094,56.0156 Q80.6094,56.625 80.375,56.8906 Q80.1406,57.1563 79.7656,57.1563 Q79.4219,57.1563 79.2188,56.9531 Q79.0156,56.7656 78.9063,56.25 Q78.8594,55.8906 78.6719,55.7031 Q78.3438,55.3281 77.7344,55.1094 Q77.125,54.8906 76.5,54.8906 Q75.7344,54.8906 75.0938,55.2188 Q74.4688,55.5469 73.9688,56.2969 Q73.4844,57.0469 73.4844,58.0781 L73.4844,59.1719 Q73.4844,60.4063 74.375,61.2344 Q75.2656,62.0469 76.8594,62.0469 Q77.7969,62.0469 78.4531,61.7969 Q78.8438,61.6406 79.2656,61.2031 Q79.5313,60.9375 79.6719,60.8594 Q79.8281,60.7813 80.0313,60.7813 Q80.3594,60.7813 80.6094,61.0469 Q80.875,61.2969 80.875,61.6406 Q80.875,61.9844 80.5313,62.3906 Q80.0313,62.9688 79.2344,63.2969 Q78.1563,63.75 76.8594,63.75 Q75.3438,63.75 74.1406,63.125 Q73.1563,62.625 72.4688,61.5625 Q71.7813,60.4844 71.7813,59.2031 L71.7813,58.0469 Q71.7813,56.7188 72.3906,55.5781 Q73.0156,54.4219 74.1094,53.8125 Q75.2031,53.1875 76.4375,53.1875 Q77.1719,53.1875 77.8125,53.3594 Q78.4688,53.5156 79.0156,53.875 Z " fill="#000000"/><text fill="#000000" font-family="sans-serif" font-size="14" lengthAdjust="spacing" textLength="45" x="96.75" y="63.7285">Person</text><line style="stroke:#181818;stroke-width:0.5;" x1="23" x2="183" y1="74" y2="74"/><line style="stroke:#181818;stroke-width:0.5;" x1="23" x2="183" y1="82" y2="82"/><ellipse cx="33" cy="93" fill="#84BE84" rx="3" ry="3" style="stroke:#038048;stroke-width:1.0;"/><text fill="#000000" font-family="sans-serif" font-size="14" lengthAdjust="spacing" textLength="107" x="42" y="100.5332">setAlter(int): void</text><ellipse cx="33" cy="110.6094" fill="#84BE84" rx="3" ry="3" style="stroke:#038048;stroke-width:1.0;"/><text fill="#000000" font-family="sans-serif" font-size="14" lengthAdjust="spacing" textLength="136" x="42" y="118.1426">setName(String): void</text></g></a><rect height="12.5781" style="stroke:#00000000;stroke-width:1.0;fill:none;" width="184" x="95" y="147"/><text fill="#888888" font-family="sans-serif" font-size="10" lengthAdjust="spacing" textLength="184" x="95" y="157.3809">UMLDoclet 2.0.17, PlantUML 1.2022.5</text><!--MD5=[b431fa20b7b5398a541e38357bc4d14d]
@startuml
    namespace com.example {

        class App [[App.html]] {
            {static} +main(String[]): void
        }

        class Person [[Person.html]] {
            +setAlter(int): void
            +setName(String): void
        }

    }

    center footer UMLDoclet 2.0.17, PlantUML 1.2022.5
@enduml

PlantUML version 1.2022.5(Sat Apr 30 12:55:52 CEST 2022)
(APACHE source distribution)
Java Runtime: Java(TM) SE Runtime Environment
JVM: Java HotSpot(TM) 64-Bit Server VM
Default Encoding: UTF-8
Language: de
Country: DE
--></g></svg>