<?xml version="1.0" encoding="UTF-8" standalone="no"?><svg xmlns="http://www.w3.org/2000/svg" xmlns:xlink="http://www.w3.org/1999/xlink" contentStyleType="text/css" height="199px" preserveAspectRatio="none" style="width:192px;height:199px;background:#FFFFFF;" version="1.1" viewBox="0 0 192 199" width="192px" zoomAndPan="magnify"><defs/><g><!--MD5=[75e60b2b4f79e69d22618e20731f9c83]
class com.example.Lehrer--><a href="Lehrer.html" target="_top" title="Lehrer.html" xlink:actuate="onRequest" xlink:href="Lehrer.html" xlink:show="new" xlink:title="Lehrer.html" xlink:type="simple"><g id="elem_com.example.Lehrer"><rect codeLine="5" fill="#F1F1F1" height="65.7969" id="com.example.Lehrer" rx="2.5" ry="2.5" style="stroke:#181818;stroke-width:0.5;" width="106" x="46" y="107"/><ellipse cx="65.05" cy="127.0938" fill="#ADD1B2" rx="11" ry="11" style="stroke:#181818;stroke-width:1.0;"/><path d="M67.8156,122.9688 Q67.9719,122.75 68.1594,122.6406 Q68.3469,122.5313 68.5656,122.5313 Q68.9406,122.5313 69.175,122.7969 Q69.4094,123.0469 69.4094,123.6563 L69.4094,125.1094 Q69.4094,125.7188 69.175,125.9844 Q68.9406,126.25 68.5656,126.25 Q68.2219,126.25 68.0188,126.0469 Q67.8156,125.8594 67.7063,125.3438 Q67.6594,124.9844 67.4719,124.7969 Q67.1438,124.4219 66.5344,124.2031 Q65.925,123.9844 65.3,123.9844 Q64.5344,123.9844 63.8938,124.3125 Q63.2688,124.6406 62.7688,125.3906 Q62.2844,126.1406 62.2844,127.1719 L62.2844,128.2656 Q62.2844,129.5 63.175,130.3281 Q64.0656,131.1406 65.6594,131.1406 Q66.5969,131.1406 67.2531,130.8906 Q67.6438,130.7344 68.0656,130.2969 Q68.3313,130.0313 68.4719,129.9531 Q68.6281,129.875 68.8313,129.875 Q69.1594,129.875 69.4094,130.1406 Q69.675,130.3906 69.675,130.7344 Q69.675,131.0781 69.3313,131.4844 Q68.8313,132.0625 68.0344,132.3906 Q66.9563,132.8438 65.6594,132.8438 Q64.1438,132.8438 62.9406,132.2188 Q61.9563,131.7188 61.2688,130.6563 Q60.5813,129.5781 60.5813,128.2969 L60.5813,127.1406 Q60.5813,125.8125 61.1906,124.6719 Q61.8156,123.5156 62.9094,122.9063 Q64.0031,122.2813 65.2375,122.2813 Q65.9719,122.2813 66.6125,122.4531 Q67.2688,122.6094 67.8156,122.9688 Z " fill="#000000"/><text fill="#000000" font-family="sans-serif" font-size="14" lengthAdjust="spacing" textLength="42" x="91.45" y="126.5332">Lehrer</text><text fill="#000000" font-family="sans-serif" font-size="10" lengthAdjust="spacing" textLength="65" x="79.95" y="139.9902">com.example</text><line style="stroke:#181818;stroke-width:0.5;" x1="47" x2="151" y1="147.1875" y2="147.1875"/><rect fill="none" height="6" style="stroke:#C82930;stroke-width:1.0;" width="6" x="54" y="155.1875"/><text fill="#000000" font-family="sans-serif" font-size="14" lengthAdjust="spacing" textLength="80" x="66" y="165.7207">fach1: String</text></g></a><!--MD5=[866f347af90f76941a6a0fe6396658f2]
class com.example.Person--><a href="Person.html" target="_top" title="Person.html" xlink:actuate="onRequest" xlink:href="Person.html" xlink:show="new" xlink:title="Person.html" xlink:type="simple"><g id="elem_com.example.Person"><rect codeLine="9" fill="#F1F1F1" height="40.1875" id="com.example.Person" rx="2.5" ry="2.5" style="stroke:#181818;stroke-width:0.5;" width="97" x="50.5" y="7"/><ellipse cx="65.5" cy="27.0938" fill="#ADD1B2" rx="11" ry="11" style="stroke:#181818;stroke-width:1.0;"/><path d="M68.2656,22.9688 Q68.4219,22.75 68.6094,22.6406 Q68.7969,22.5313 69.0156,22.5313 Q69.3906,22.5313 69.625,22.7969 Q69.8594,23.0469 69.8594,23.6563 L69.8594,25.1094 Q69.8594,25.7188 69.625,25.9844 Q69.3906,26.25 69.0156,26.25 Q68.6719,26.25 68.4688,26.0469 Q68.2656,25.8594 68.1563,25.3438 Q68.1094,24.9844 67.9219,24.7969 Q67.5938,24.4219 66.9844,24.2031 Q66.375,23.9844 65.75,23.9844 Q64.9844,23.9844 64.3438,24.3125 Q63.7188,24.6406 63.2188,25.3906 Q62.7344,26.1406 62.7344,27.1719 L62.7344,28.2656 Q62.7344,29.5 63.625,30.3281 Q64.5156,31.1406 66.1094,31.1406 Q67.0469,31.1406 67.7031,30.8906 Q68.0938,30.7344 68.5156,30.2969 Q68.7813,30.0313 68.9219,29.9531 Q69.0781,29.875 69.2813,29.875 Q69.6094,29.875 69.8594,30.1406 Q70.125,30.3906 70.125,30.7344 Q70.125,31.0781 69.7813,31.4844 Q69.2813,32.0625 68.4844,32.3906 Q67.4063,32.8438 66.1094,32.8438 Q64.5938,32.8438 63.3906,32.2188 Q62.4063,31.7188 61.7188,30.6563 Q61.0313,29.5781 61.0313,28.2969 L61.0313,27.1406 Q61.0313,25.8125 61.6406,24.6719 Q62.2656,23.5156 63.3594,22.9063 Q64.4531,22.2813 65.6875,22.2813 Q66.4219,22.2813 67.0625,22.4531 Q67.7188,22.6094 68.2656,22.9688 Z " fill="#000000"/><text fill="#000000" font-family="sans-serif" font-size="14" lengthAdjust="spacing" textLength="45" x="89.5" y="26.5332">Person</text><text fill="#000000" font-family="sans-serif" font-size="10" lengthAdjust="spacing" textLength="65" x="79.5" y="39.9902">com.example</text></g></a><!--MD5=[0b1e344e77f5a25902ea29ad21cd24be]
reverse link com.example.Person to com.example.Lehrer--><g id="link_com.example.Person_com.example.Lehrer"><path codeLine="11" d="M99,67.09 C99,80.05 99,94.32 99,106.71 " fill="none" id="com.example.Person-backto-com.example.Lehrer" style="stroke:#181818;stroke-width:1.0;"/><polygon fill="none" points="92,67.08,99,47.08,106,67.08,92,67.08" style="stroke:#181818;stroke-width:1.0;"/></g><rect height="12.5781" style="stroke:#00000000;stroke-width:1.0;fill:none;" width="184" x="0" y="178.7969"/><text fill="#888888" font-family="sans-serif" font-size="10" lengthAdjust="spacing" textLength="184" x="0" y="189.1777">UMLDoclet 2.0.17, PlantUML 1.2022.5</text><!--MD5=[a771b75cd6ccdc08e3e5623395bc8add]
@startuml
    set namespaceSeparator none
    hide empty fields
    hide empty methods

    class "<size:14>Lehrer\n<size:10>com.example" as com.example.Lehrer [[Lehrer.html]] {
        -fach1: String
    }

    class "<size:14>Person\n<size:10>com.example" as com.example.Person [[Person.html]]

    com.example.Person <|- - com.example.Lehrer

    center footer UMLDoclet 2.0.17, PlantUML 1.2022.5
@enduml

PlantUML version 1.2022.5(Sat Apr 30 12:55:52 CEST 2022)
(APACHE source distribution)
Java Runtime: Java(TM) SE Runtime Environment
JVM: Java HotSpot(TM) 64-Bit Server VM
Default Encoding: UTF-8
Language: de
Country: DE
--></g></svg>