<?xml version="1.0" encoding="UTF-8" standalone="no"?><svg xmlns="http://www.w3.org/2000/svg" xmlns:xlink="http://www.w3.org/1999/xlink" contentStyleType="text/css" height="382px" preserveAspectRatio="none" style="width:499px;height:382px;background:#FFFFFF;" version="1.1" viewBox="0 0 499 382" width="499px" zoomAndPan="magnify"><defs/><g><!--MD5=[c541329f0a8967aa026fc65b36e8f452]
cluster com.example--><g id="cluster_com.example"><path d="M8.5,6 L101.5,6 A3.75,3.75 0 0 1 104,8.5 L111,29.6094 L489.5,29.6094 A2.5,2.5 0 0 1 492,32.1094 L492,353.5 A2.5,2.5 0 0 1 489.5,356 L8.5,356 A2.5,2.5 0 0 1 6,353.5 L6,8.5 A2.5,2.5 0 0 1 8.5,6 " style="stroke:#000000;stroke-width:1.5;fill:none;"/><line style="stroke:#000000;stroke-width:1.5;fill:none;" x1="6" x2="111" y1="29.6094" y2="29.6094"/><text fill="#000000" font-family="sans-serif" font-size="14" font-weight="bold" lengthAdjust="spacing" textLength="92" x="10" y="22.5332">com.example</text></g><!--MD5=[8ff7a88e43d992f68e2a71bb0de4bb33]
class com.example.App--><a href="App.html" target="_top" title="App.html" xlink:actuate="onRequest" xlink:href="App.html" xlink:show="new" xlink:title="App.html" xlink:type="simple"><g id="elem_com.example.App"><rect codeLine="3" fill="#F1F1F1" height="65.6094" id="com.example.App" rx="2.5" ry="2.5" style="stroke:#181818;stroke-width:0.5;" width="145" x="330.5" y="86"/><ellipse cx="386.25" cy="102" fill="#ADD1B2" rx="11" ry="11" style="stroke:#181818;stroke-width:1.0;"/><path d="M389.0156,97.875 Q389.1719,97.6563 389.3594,97.5469 Q389.5469,97.4375 389.7656,97.4375 Q390.1406,97.4375 390.375,97.7031 Q390.6094,97.9531 390.6094,98.5625 L390.6094,100.0156 Q390.6094,100.625 390.375,100.8906 Q390.1406,101.1563 389.7656,101.1563 Q389.4219,101.1563 389.2188,100.9531 Q389.0156,100.7656 388.9063,100.25 Q388.8594,99.8906 388.6719,99.7031 Q388.3438,99.3281 387.7344,99.1094 Q387.125,98.8906 386.5,98.8906 Q385.7344,98.8906 385.0938,99.2188 Q384.4688,99.5469 383.9688,100.2969 Q383.4844,101.0469 383.4844,102.0781 L383.4844,103.1719 Q383.4844,104.4063 384.375,105.2344 Q385.2656,106.0469 386.8594,106.0469 Q387.7969,106.0469 388.4531,105.7969 Q388.8438,105.6406 389.2656,105.2031 Q389.5313,104.9375 389.6719,104.8594 Q389.8281,104.7813 390.0313,104.7813 Q390.3594,104.7813 390.6094,105.0469 Q390.875,105.2969 390.875,105.6406 Q390.875,105.9844 390.5313,106.3906 Q390.0313,106.9688 389.2344,107.2969 Q388.1563,107.75 386.8594,107.75 Q385.3438,107.75 384.1406,107.125 Q383.1563,106.625 382.4688,105.5625 Q381.7813,104.4844 381.7813,103.2031 L381.7813,102.0469 Q381.7813,100.7188 382.3906,99.5781 Q383.0156,98.4219 384.1094,97.8125 Q385.2031,97.1875 386.4375,97.1875 Q387.1719,97.1875 387.8125,97.3594 Q388.4688,97.5156 389.0156,97.875 Z " fill="#000000"/><text fill="#000000" font-family="sans-serif" font-size="14" lengthAdjust="spacing" textLength="25" x="406.75" y="107.7285">App</text><line style="stroke:#181818;stroke-width:0.5;" x1="331.5" x2="474.5" y1="118" y2="118"/><line style="stroke:#181818;stroke-width:0.5;" x1="331.5" x2="474.5" y1="126" y2="126"/><ellipse cx="341.5" cy="137" fill="#84BE84" rx="3" ry="3" style="stroke:#038048;stroke-width:1.0;"/><text fill="#000000" font-family="sans-serif" font-size="14" lengthAdjust="spacing" text-decoration="underline" textLength="119" x="350.5" y="144.5332">main(String[]): void</text></g></a><!--MD5=[75e60b2b4f79e69d22618e20731f9c83]
class com.example.Lehrer--><a href="Lehrer.html" target="_top" title="Lehrer.html" xlink:actuate="onRequest" xlink:href="Lehrer.html" xlink:show="new" xlink:title="Lehrer.html" xlink:type="simple"><g id="elem_com.example.Lehrer"><rect codeLine="7" fill="#F1F1F1" height="65.6094" id="com.example.Lehrer" rx="2.5" ry="2.5" style="stroke:#181818;stroke-width:0.5;" width="106" x="70" y="274"/><ellipse cx="99.4" cy="290" fill="#ADD1B2" rx="11" ry="11" style="stroke:#181818;stroke-width:1.0;"/><path d="M102.1656,285.875 Q102.3219,285.6563 102.5094,285.5469 Q102.6969,285.4375 102.9156,285.4375 Q103.2906,285.4375 103.525,285.7031 Q103.7594,285.9531 103.7594,286.5625 L103.7594,288.0156 Q103.7594,288.625 103.525,288.8906 Q103.2906,289.1563 102.9156,289.1563 Q102.5719,289.1563 102.3688,288.9531 Q102.1656,288.7656 102.0563,288.25 Q102.0094,287.8906 101.8219,287.7031 Q101.4938,287.3281 100.8844,287.1094 Q100.275,286.8906 99.65,286.8906 Q98.8844,286.8906 98.2438,287.2188 Q97.6188,287.5469 97.1188,288.2969 Q96.6344,289.0469 96.6344,290.0781 L96.6344,291.1719 Q96.6344,292.4063 97.525,293.2344 Q98.4156,294.0469 100.0094,294.0469 Q100.9469,294.0469 101.6031,293.7969 Q101.9938,293.6406 102.4156,293.2031 Q102.6813,292.9375 102.8219,292.8594 Q102.9781,292.7813 103.1813,292.7813 Q103.5094,292.7813 103.7594,293.0469 Q104.025,293.2969 104.025,293.6406 Q104.025,293.9844 103.6813,294.3906 Q103.1813,294.9688 102.3844,295.2969 Q101.3063,295.75 100.0094,295.75 Q98.4938,295.75 97.2906,295.125 Q96.3063,294.625 95.6188,293.5625 Q94.9313,292.4844 94.9313,291.2031 L94.9313,290.0469 Q94.9313,288.7188 95.5406,287.5781 Q96.1656,286.4219 97.2594,285.8125 Q98.3531,285.1875 99.5875,285.1875 Q100.3219,285.1875 100.9625,285.3594 Q101.6188,285.5156 102.1656,285.875 Z " fill="#000000"/><text fill="#000000" font-family="sans-serif" font-size="14" lengthAdjust="spacing" textLength="42" x="116.6" y="295.7285">Lehrer</text><line style="stroke:#181818;stroke-width:0.5;" x1="71" x2="175" y1="306" y2="306"/><rect fill="none" height="6" style="stroke:#C82930;stroke-width:1.0;" width="6" x="78" y="314"/><text fill="#000000" font-family="sans-serif" font-size="14" lengthAdjust="spacing" textLength="80" x="90" y="324.5332">fach1: String</text><line style="stroke:#181818;stroke-width:0.5;" x1="71" x2="175" y1="331.6094" y2="331.6094"/></g></a><!--MD5=[866f347af90f76941a6a0fe6396658f2]
class com.example.Person--><a href="Person.html" target="_top" title="Person.html" xlink:actuate="onRequest" xlink:href="Person.html" xlink:show="new" xlink:title="Person.html" xlink:type="simple"><g id="elem_com.example.Person"><rect codeLine="11" fill="#F1F1F1" height="153.6563" id="com.example.Person" rx="2.5" ry="2.5" style="stroke:#181818;stroke-width:0.5;" width="162" x="133" y="42"/><ellipse cx="187.25" cy="58" fill="#ADD1B2" rx="11" ry="11" style="stroke:#181818;stroke-width:1.0;"/><path d="M190.0156,53.875 Q190.1719,53.6563 190.3594,53.5469 Q190.5469,53.4375 190.7656,53.4375 Q191.1406,53.4375 191.375,53.7031 Q191.6094,53.9531 191.6094,54.5625 L191.6094,56.0156 Q191.6094,56.625 191.375,56.8906 Q191.1406,57.1563 190.7656,57.1563 Q190.4219,57.1563 190.2188,56.9531 Q190.0156,56.7656 189.9063,56.25 Q189.8594,55.8906 189.6719,55.7031 Q189.3438,55.3281 188.7344,55.1094 Q188.125,54.8906 187.5,54.8906 Q186.7344,54.8906 186.0938,55.2188 Q185.4688,55.5469 184.9688,56.2969 Q184.4844,57.0469 184.4844,58.0781 L184.4844,59.1719 Q184.4844,60.4063 185.375,61.2344 Q186.2656,62.0469 187.8594,62.0469 Q188.7969,62.0469 189.4531,61.7969 Q189.8438,61.6406 190.2656,61.2031 Q190.5313,60.9375 190.6719,60.8594 Q190.8281,60.7813 191.0313,60.7813 Q191.3594,60.7813 191.6094,61.0469 Q191.875,61.2969 191.875,61.6406 Q191.875,61.9844 191.5313,62.3906 Q191.0313,62.9688 190.2344,63.2969 Q189.1563,63.75 187.8594,63.75 Q186.3438,63.75 185.1406,63.125 Q184.1563,62.625 183.4688,61.5625 Q182.7813,60.4844 182.7813,59.2031 L182.7813,58.0469 Q182.7813,56.7188 183.3906,55.5781 Q184.0156,54.4219 185.1094,53.8125 Q186.2031,53.1875 187.4375,53.1875 Q188.1719,53.1875 188.8125,53.3594 Q189.4688,53.5156 190.0156,53.875 Z " fill="#000000"/><text fill="#000000" font-family="sans-serif" font-size="14" lengthAdjust="spacing" textLength="45" x="207.75" y="63.7285">Person</text><line style="stroke:#181818;stroke-width:0.5;" x1="134" x2="294" y1="74" y2="74"/><rect fill="none" height="6" style="stroke:#C82930;stroke-width:1.0;" width="6" x="141" y="82"/><text fill="#000000" font-family="sans-serif" font-size="14" lengthAdjust="spacing" textLength="80" x="153" y="92.5332">name: String</text><rect fill="none" height="6" style="stroke:#C82930;stroke-width:1.0;" width="6" x="141" y="99.6094"/><text fill="#000000" font-family="sans-serif" font-size="14" lengthAdjust="spacing" textLength="51" x="153" y="110.1426">alter: int</text><line style="stroke:#181818;stroke-width:0.5;" x1="134" x2="294" y1="117.2188" y2="117.2188"/><ellipse cx="144" cy="128.2188" fill="#84BE84" rx="3" ry="3" style="stroke:#038048;stroke-width:1.0;"/><text fill="#000000" font-family="sans-serif" font-size="14" lengthAdjust="spacing" textLength="107" x="153" y="135.752">setAlter(int): void</text><ellipse cx="144" cy="145.8281" fill="#84BE84" rx="3" ry="3" style="stroke:#038048;stroke-width:1.0;"/><text fill="#000000" font-family="sans-serif" font-size="14" lengthAdjust="spacing" textLength="136" x="153" y="153.3613">setName(String): void</text><ellipse cx="144" cy="163.4375" fill="#84BE84" rx="3" ry="3" style="stroke:#038048;stroke-width:1.0;"/><text fill="#000000" font-family="sans-serif" font-size="14" lengthAdjust="spacing" textLength="111" x="153" y="170.9707">getName(): String</text><ellipse cx="144" cy="181.0469" fill="#84BE84" rx="3" ry="3" style="stroke:#038048;stroke-width:1.0;"/><text fill="#000000" font-family="sans-serif" font-size="14" lengthAdjust="spacing" textLength="82" x="153" y="188.5801">getAlter(): int</text></g></a><!--MD5=[9c50058236c2ad96016f828f26822560]
class com.example.Schule--><a href="Schule.html" target="_top" title="Schule.html" xlink:actuate="onRequest" xlink:href="Schule.html" xlink:show="new" xlink:title="Schule.html" xlink:type="simple"><g id="elem_com.example.Schule"><rect codeLine="20" fill="#F1F1F1" height="48" id="com.example.Schule" rx="2.5" ry="2.5" style="stroke:#181818;stroke-width:0.5;" width="75" x="22.5" y="95"/><ellipse cx="37.5" cy="111" fill="#ADD1B2" rx="11" ry="11" style="stroke:#181818;stroke-width:1.0;"/><path d="M40.2656,106.875 Q40.4219,106.6563 40.6094,106.5469 Q40.7969,106.4375 41.0156,106.4375 Q41.3906,106.4375 41.625,106.7031 Q41.8594,106.9531 41.8594,107.5625 L41.8594,109.0156 Q41.8594,109.625 41.625,109.8906 Q41.3906,110.1563 41.0156,110.1563 Q40.6719,110.1563 40.4688,109.9531 Q40.2656,109.7656 40.1563,109.25 Q40.1094,108.8906 39.9219,108.7031 Q39.5938,108.3281 38.9844,108.1094 Q38.375,107.8906 37.75,107.8906 Q36.9844,107.8906 36.3438,108.2188 Q35.7188,108.5469 35.2188,109.2969 Q34.7344,110.0469 34.7344,111.0781 L34.7344,112.1719 Q34.7344,113.4063 35.625,114.2344 Q36.5156,115.0469 38.1094,115.0469 Q39.0469,115.0469 39.7031,114.7969 Q40.0938,114.6406 40.5156,114.2031 Q40.7813,113.9375 40.9219,113.8594 Q41.0781,113.7813 41.2813,113.7813 Q41.6094,113.7813 41.8594,114.0469 Q42.125,114.2969 42.125,114.6406 Q42.125,114.9844 41.7813,115.3906 Q41.2813,115.9688 40.4844,116.2969 Q39.4063,116.75 38.1094,116.75 Q36.5938,116.75 35.3906,116.125 Q34.4063,115.625 33.7188,114.5625 Q33.0313,113.4844 33.0313,112.2031 L33.0313,111.0469 Q33.0313,109.7188 33.6406,108.5781 Q34.2656,107.4219 35.3594,106.8125 Q36.4531,106.1875 37.6875,106.1875 Q38.4219,106.1875 39.0625,106.3594 Q39.7188,106.5156 40.2656,106.875 Z " fill="#000000"/><text fill="#000000" font-family="sans-serif" font-size="14" lengthAdjust="spacing" textLength="43" x="51.5" y="116.7285">Schule</text><line style="stroke:#181818;stroke-width:0.5;" x1="23.5" x2="96.5" y1="127" y2="127"/><line style="stroke:#181818;stroke-width:0.5;" x1="23.5" x2="96.5" y1="135" y2="135"/></g></a><!--MD5=[0b1e344e77f5a25902ea29ad21cd24be]
reverse link com.example.Person to com.example.Lehrer--><g id="link_com.example.Person_com.example.Lehrer"><path codeLine="22" d="M183.82,214.77 C179.6,224.83 174.99,234.76 170,244 C164.48,254.22 157.37,264.57 150.35,273.81 " fill="none" id="com.example.Person-backto-com.example.Lehrer" style="stroke:#181818;stroke-width:1.0;"/><polygon fill="none" points="177.36,212.07,191.2,196.02,190.39,217.2,177.36,212.07" style="stroke:#181818;stroke-width:1.0;"/></g><!--MD5=[ebe152eae0ccf7ba74aa84a86cf7f229]
link com.example.Schule to com.example.Lehrer--><g id="link_com.example.Schule_com.example.Lehrer"><path codeLine="23" d="M67.85,143.18 C78.52,174.68 97.72,231.37 110.42,268.84 " fill="none" id="com.example.Schule-to-com.example.Lehrer" style="stroke:#181818;stroke-width:1.0;"/><polygon fill="#181818" points="112.08,273.77,112.9933,263.9636,110.4817,269.0323,105.413,266.5208,112.08,273.77" style="stroke:#181818;stroke-width:1.0;"/><text fill="#000000" font-family="sans-serif" font-size="13" lengthAdjust="spacing" textLength="60" x="101" y="240.4951">lehrkraefte</text><text fill="#000000" font-family="sans-serif" font-size="13" lengthAdjust="spacing" textLength="5" x="104.4379" y="263.221">*</text></g><rect height="12.5781" style="stroke:#00000000;stroke-width:1.0;fill:none;" width="184" x="150.5" y="362"/><text fill="#888888" font-family="sans-serif" font-size="10" lengthAdjust="spacing" textLength="184" x="150.5" y="372.3809">UMLDoclet 2.0.17, PlantUML 1.2022.5</text><!--MD5=[4e31bf72dc4a9ff45325306e51188d68]
@startuml
    namespace com.example {

        class App [[App.html]] {
            {static} +main(String[]): void
        }

        class Lehrer [[Lehrer.html]] {
            -fach1: String
        }

        class Person [[Person.html]] {
            -name: String
            -alter: int
            +setAlter(int): void
            +setName(String): void
            +getName(): String
            +getAlter(): int
        }

        class Schule [[Schule.html]]

        Person <|- - Lehrer
        Schule - -> "*" Lehrer: lehrkraefte
    }

    center footer UMLDoclet 2.0.17, PlantUML 1.2022.5
@enduml

PlantUML version 1.2022.5(Sat Apr 30 12:55:52 CEST 2022)
(APACHE source distribution)
Java Runtime: Java(TM) SE Runtime Environment
JVM: Java HotSpot(TM) 64-Bit Server VM
Default Encoding: UTF-8
Language: de
Country: DE
--></g></svg>