<?xml version="1.0" encoding="UTF-8" standalone="no"?><svg xmlns="http://www.w3.org/2000/svg" xmlns:xlink="http://www.w3.org/1999/xlink" contentStyleType="text/css" height="196px" preserveAspectRatio="none" style="width:192px;height:196px;background:#FFFFFF;" version="1.1" viewBox="0 0 192 196" width="192px" zoomAndPan="magnify"><defs/><g><!--MD5=[866f347af90f76941a6a0fe6396658f2]
class com.example.Person--><a href="Person.html" target="_top" title="Person.html" xlink:actuate="onRequest" xlink:href="Person.html" xlink:show="new" xlink:title="Person.html" xlink:type="simple"><g id="elem_com.example.Person"><rect codeLine="5" fill="#F1F1F1" height="161.8438" id="com.example.Person" rx="2.5" ry="2.5" style="stroke:#181818;stroke-width:0.5;" width="162" x="11.5" y="7"/><ellipse cx="55.75" cy="27.0938" fill="#ADD1B2" rx="11" ry="11" style="stroke:#181818;stroke-width:1.0;"/><path d="M58.5156,22.9688 Q58.6719,22.75 58.8594,22.6406 Q59.0469,22.5313 59.2656,22.5313 Q59.6406,22.5313 59.875,22.7969 Q60.1094,23.0469 60.1094,23.6563 L60.1094,25.1094 Q60.1094,25.7188 59.875,25.9844 Q59.6406,26.25 59.2656,26.25 Q58.9219,26.25 58.7188,26.0469 Q58.5156,25.8594 58.4063,25.3438 Q58.3594,24.9844 58.1719,24.7969 Q57.8438,24.4219 57.2344,24.2031 Q56.625,23.9844 56,23.9844 Q55.2344,23.9844 54.5938,24.3125 Q53.9688,24.6406 53.4688,25.3906 Q52.9844,26.1406 52.9844,27.1719 L52.9844,28.2656 Q52.9844,29.5 53.875,30.3281 Q54.7656,31.1406 56.3594,31.1406 Q57.2969,31.1406 57.9531,30.8906 Q58.3438,30.7344 58.7656,30.2969 Q59.0313,30.0313 59.1719,29.9531 Q59.3281,29.875 59.5313,29.875 Q59.8594,29.875 60.1094,30.1406 Q60.375,30.3906 60.375,30.7344 Q60.375,31.0781 60.0313,31.4844 Q59.5313,32.0625 58.7344,32.3906 Q57.6563,32.8438 56.3594,32.8438 Q54.8438,32.8438 53.6406,32.2188 Q52.6563,31.7188 51.9688,30.6563 Q51.2813,29.5781 51.2813,28.2969 L51.2813,27.1406 Q51.2813,25.8125 51.8906,24.6719 Q52.5156,23.5156 53.6094,22.9063 Q54.7031,22.2813 55.9375,22.2813 Q56.6719,22.2813 57.3125,22.4531 Q57.9688,22.6094 58.5156,22.9688 Z " fill="#000000"/><text fill="#000000" font-family="sans-serif" font-size="14" lengthAdjust="spacing" textLength="45" x="86.25" y="26.5332">Person</text><text fill="#000000" font-family="sans-serif" font-size="10" lengthAdjust="spacing" textLength="65" x="76.25" y="39.9902">com.example</text><line style="stroke:#181818;stroke-width:0.5;" x1="12.5" x2="172.5" y1="47.1875" y2="47.1875"/><rect fill="none" height="6" style="stroke:#C82930;stroke-width:1.0;" width="6" x="19.5" y="55.1875"/><text fill="#000000" font-family="sans-serif" font-size="14" lengthAdjust="spacing" textLength="80" x="31.5" y="65.7207">name: String</text><rect fill="none" height="6" style="stroke:#C82930;stroke-width:1.0;" width="6" x="19.5" y="72.7969"/><text fill="#000000" font-family="sans-serif" font-size="14" lengthAdjust="spacing" textLength="51" x="31.5" y="83.3301">alter: int</text><line style="stroke:#181818;stroke-width:0.5;" x1="12.5" x2="172.5" y1="90.4063" y2="90.4063"/><ellipse cx="22.5" cy="101.4063" fill="#84BE84" rx="3" ry="3" style="stroke:#038048;stroke-width:1.0;"/><text fill="#000000" font-family="sans-serif" font-size="14" lengthAdjust="spacing" textLength="107" x="31.5" y="108.9395">setAlter(int): void</text><ellipse cx="22.5" cy="119.0156" fill="#84BE84" rx="3" ry="3" style="stroke:#038048;stroke-width:1.0;"/><text fill="#000000" font-family="sans-serif" font-size="14" lengthAdjust="spacing" textLength="136" x="31.5" y="126.5488">setName(String): void</text><ellipse cx="22.5" cy="136.625" fill="#84BE84" rx="3" ry="3" style="stroke:#038048;stroke-width:1.0;"/><text fill="#000000" font-family="sans-serif" font-size="14" lengthAdjust="spacing" textLength="111" x="31.5" y="144.1582">getName(): String</text><ellipse cx="22.5" cy="154.2344" fill="#84BE84" rx="3" ry="3" style="stroke:#038048;stroke-width:1.0;"/><text fill="#000000" font-family="sans-serif" font-size="14" lengthAdjust="spacing" textLength="82" x="31.5" y="161.7676">getAlter(): int</text></g></a><rect height="12.5781" style="stroke:#00000000;stroke-width:1.0;fill:none;" width="184" x="0" y="175.8438"/><text fill="#888888" font-family="sans-serif" font-size="10" lengthAdjust="spacing" textLength="184" x="0" y="186.2246">UMLDoclet 2.0.17, PlantUML 1.2022.5</text><!--MD5=[94aed68b64d2ef380176f40015ff2b6a]
@startuml
    set namespaceSeparator none
    hide empty fields
    hide empty methods

    class "<size:14>Person\n<size:10>com.example" as com.example.Person [[Person.html]] {
        -name: String
        -alter: int
        +setAlter(int): void
        +setName(String): void
        +getName(): String
        +getAlter(): int
    }

    center footer UMLDoclet 2.0.17, PlantUML 1.2022.5
@enduml

PlantUML version 1.2022.5(Sat Apr 30 12:55:52 CEST 2022)
(APACHE source distribution)
Java Runtime: Java(TM) SE Runtime Environment
JVM: Java HotSpot(TM) 64-Bit Server VM
Default Encoding: UTF-8
Language: de
Country: DE
--></g></svg>